<svg xmlns="http://www.w3.org/2000/svg" width="128" height="128" viewBox="0 0 128 128">
  <defs>
    <linearGradient id="grad1" x1="0%" y1="0%" x2="100%" y2="100%">
      <stop offset="0%" style="stop-color:#667eea;stop-opacity:1" />
      <stop offset="100%" style="stop-color:#764ba2;stop-opacity:1" />
    </linearGradient>
  </defs>
  <!-- Background circle -->
  <circle cx="64" cy="64" r="56" fill="url(#grad1)" opacity="0.9"/>
  <!-- Chat bubble 1 -->
  <path d="M32 40 h32 a8 8 0 0 1 8 8 v20 a8 8 0 0 1 -8 8 h-20 l-12 12 v-12 a8 8 0 0 1 -8 -8 v-20 a8 8 0 0 1 8 -8"
        fill="white" opacity="0.95"/>
  <!-- Chat bubble 2 -->
  <path d="M56 52 h32 a8 8 0 0 1 8 8 v20 a8 8 0 0 1 -8 8 v12 l-12 -12 h-20 a8 8 0 0 1 -8 -8 v-20 a8 8 0 0 1 8 -8"
        fill="white" opacity="0.85"/>
  <!-- Connection dots -->
  <circle cx="42" cy="58" r="3" fill="#667eea"/>
  <circle cx="52" cy="58" r="3" fill="#667eea"/>
  <circle cx="62" cy="58" r="3" fill="#667eea"/>
  <!-- Arrow indicating P2P -->
  <path d="M75 72 l10 0 l-3 -3 m3 3 l-3 3" stroke="#764ba2" stroke-width="2" fill="none" stroke-linecap="round"/>
</svg>
